<svg width="16" height="16" viewBox="0 0 16 16" fill="none" xmlns="http://www.w3.org/2000/svg">
<path d="M11.3309 3.04259H11.3309C11.7623 3.04259 12.176 3.21396 12.4811 3.51899C12.7861 3.82403 12.9575 4.23775 12.9575 4.66914V4.66915C12.9575 5.10054 12.7861 5.51426 12.4811 5.8193C12.176 6.12434 11.7623 6.29571 11.3309 6.29571H9.70435V4.66915C9.70435 4.23776 9.87571 3.82403 10.1808 3.519C10.4858 3.21396 10.8995 3.04259 11.3309 3.04259V3.04259Z" stroke="#FF4B00" stroke-width="1.39419" stroke-linecap="round" stroke-linejoin="round"/>
<path d="M6.91602 6.2957H5.28946C4.85807 6.2957 4.44434 6.12433 4.1393 5.81929C3.83426 5.51425 3.6629 5.10053 3.6629 4.66914V4.66914C3.6629 4.23775 3.83426 3.82403 4.1393 3.51899C4.44434 3.21395 4.85806 3.04258 5.28945 3.04258H5.28946C5.72085 3.04258 6.13457 3.21395 6.43961 3.51899C6.74465 3.82403 6.91602 4.23775 6.91602 4.66914V6.2957Z" stroke="#FF4B00" stroke-width="1.39419" stroke-linecap="round" stroke-linejoin="round"/>
<path d="M9.70435 9.08409H11.3309C11.7623 9.08409 12.176 9.25546 12.4811 9.5605C12.7861 9.86554 12.9575 10.2793 12.9575 10.7107V10.7107C12.9575 11.142 12.7861 11.5558 12.4811 11.8608C12.176 12.1658 11.7623 12.3372 11.3309 12.3372H11.3309C10.8995 12.3372 10.4858 12.1658 10.1808 11.8608C9.87571 11.5558 9.70435 11.142 9.70435 10.7107V9.08409Z" stroke="#FF4B00" stroke-width="1.39419" stroke-linecap="round" stroke-linejoin="round"/>
<path d="M5.28946 12.3372H5.28945C4.85806 12.3372 4.44434 12.1659 4.1393 11.8608C3.83426 11.5558 3.6629 11.1421 3.6629 10.7107V10.7107C3.6629 10.2793 3.83426 9.86555 4.1393 9.56051C4.44434 9.25547 4.85807 9.0841 5.28946 9.0841H6.91602V10.7107C6.91602 11.142 6.74465 11.5558 6.43961 11.8608C6.13457 12.1659 5.72085 12.3372 5.28946 12.3372V12.3372Z" stroke="#FF4B00" stroke-width="1.39419" stroke-linecap="round" stroke-linejoin="round"/>
<path d="M9.7044 6.2957H6.91602V9.08409H9.7044V6.2957Z" stroke="#FF4B00" stroke-width="1.39419" stroke-linecap="round" stroke-linejoin="round"/>
</svg>
