<svg width="17" height="17" viewBox="0 0 17 17" fill="none" xmlns="http://www.w3.org/2000/svg">
<path fill-rule="evenodd" clip-rule="evenodd" d="M6.15891 13.3566H3.34201C2.84947 13.3566 2.4502 12.9573 2.4502 12.4648V11.8828C2.4502 11.5458 2.58404 11.2227 2.82229 10.9845C3.43778 10.369 3.78355 9.53422 3.78355 8.66381V6.68985C3.78355 4.11249 5.87292 2.02312 8.45028 2.02312C11.0276 2.02312 13.117 4.11249 13.117 6.68985V8.66381C13.117 9.53422 13.4628 10.369 14.0783 10.9845C14.3165 11.2227 14.4504 11.5458 14.4504 11.8828V12.4648C14.4504 12.9573 14.0511 13.3566 13.5585 13.3566H10.7416C10.7416 13.5943 10.7339 14.0475 10.4949 14.4815C10.0992 15.1997 9.33269 15.69 8.45028 15.69C7.5678 15.69 6.80129 15.1997 6.40566 14.4815C6.16661 14.0475 6.15891 13.5943 6.15891 13.3566ZM13.3711 11.6916C13.4219 11.7423 13.4503 11.8111 13.4503 11.8828V12.3566H3.45021V11.8828C3.45021 11.8111 3.4787 11.7423 3.52941 11.6916C4.33243 10.8886 4.78356 9.79942 4.78356 8.66381V6.68985C4.78356 4.66477 6.42521 3.02313 8.45028 3.02313C10.4754 3.02313 12.117 4.66477 12.117 6.68985V8.66381C12.117 9.79942 12.5681 10.8886 13.3711 11.6916ZM9.74163 13.3566H7.15893C7.15893 13.5779 7.17479 13.8051 7.28159 13.999C7.35606 14.1343 7.4534 14.2552 7.56833 14.3566C7.80334 14.5641 8.11214 14.69 8.45028 14.69C8.78842 14.69 9.09715 14.5641 9.33222 14.3566C9.44716 14.2552 9.54443 14.1343 9.61896 13.999C9.72576 13.8051 9.74163 13.5779 9.74163 13.3566Z" fill="black"/>
<circle cx="12.4505" cy="4.02314" r="2.33337" fill="#D34645" stroke="white" stroke-width="0.666676"/>
</svg>
